<svg width="56" height="56" viewBox="0 0 56 56" fill="none" xmlns="http://www.w3.org/2000/svg">
<rect width="56" height="56" rx="8" fill="#F7F7FF"/>
<mask id="mask0_10594_180347" style="mask-type:alpha" maskUnits="userSpaceOnUse" x="8" y="8" width="40" height="40">
<rect x="8" y="8" width="40" height="40" fill="#D9D9D9"/>
</mask>
<g mask="url(#mask0_10594_180347)">
<path d="M27.9993 44.6666C27.2771 44.6666 26.6243 44.4933 26.041 44.1466C25.4577 43.7988 24.9993 43.3333 24.666 42.7499C23.7493 42.7499 22.9649 42.4238 22.3127 41.7716C21.6593 41.1183 21.3327 40.3333 21.3327 39.4166V33.4999C19.6938 32.4166 18.3816 30.986 17.396 29.2083C16.4093 27.4305 15.916 25.4999 15.916 23.4166C15.916 20.0555 17.0893 17.201 19.436 14.8533C21.7838 12.5066 24.6382 11.3333 27.9993 11.3333C31.3605 11.3333 34.2143 12.5066 36.561 14.8533C38.9088 17.201 40.0827 20.0555 40.0827 23.4166C40.0827 25.5555 39.5899 27.4999 38.6043 29.2499C37.6177 30.9999 36.3049 32.4166 34.666 33.4999V39.4166C34.666 40.3333 34.3399 41.1183 33.6877 41.7716C33.0343 42.4238 32.2493 42.7499 31.3327 42.7499C30.9993 43.3333 30.541 43.7988 29.9577 44.1466C29.3743 44.4933 28.7216 44.6666 27.9993 44.6666ZM24.666 39.4166H31.3327V37.9166H24.666V39.4166ZM24.666 36.2499H31.3327V34.6666H24.666V36.2499ZM24.3327 31.3333H26.7493V26.8333L23.0827 23.1666L24.8327 21.4166L27.9993 24.5833L31.166 21.4166L32.916 23.1666L29.2493 26.8333V31.3333H31.666C33.166 30.611 34.3882 29.5483 35.3327 28.1449C36.2771 26.7427 36.7493 25.1666 36.7493 23.4166C36.7493 20.9721 35.9021 18.9027 34.2077 17.2083C32.5132 15.5138 30.4438 14.6666 27.9993 14.6666C25.5549 14.6666 23.4855 15.5138 21.791 17.2083C20.0966 18.9027 19.2493 20.9721 19.2493 23.4166C19.2493 25.1666 19.7216 26.7427 20.666 28.1449C21.6105 29.5483 22.8327 30.611 24.3327 31.3333Z" fill="#6E71CC"/>
</g>
</svg>
