<svg width="56" height="56" viewBox="0 0 56 56" fill="none" xmlns="http://www.w3.org/2000/svg">
<rect width="56" height="56" rx="8" fill="#F7F7FF"/>
<path d="M29.6666 13C36.1332 13 41.3332 18.2333 41.3332 24.6666C41.3332 29.3333 38.6166 33.3166 34.6666 35.1833V43H22.9999V38H21.3332C19.4832 38 17.9999 36.5166 17.9999 34.6666V29.6666H15.4999C14.7999 29.6666 14.3999 28.8333 14.7999 28.3166L17.9999 24.1C18.3166 17.9166 23.3832 13 29.6666 13ZM29.6666 9.66663C22.0332 9.66663 15.6832 15.3833 14.7666 22.85L12.1666 26.3333C11.1999 27.5333 11.0332 29.2 11.7332 30.65C12.3332 31.85 13.3999 32.6666 14.6666 32.9166V34.6666C14.6666 37.7666 16.7999 40.3833 19.6666 41.1166V46.3333H37.9999V37.1166C42.1666 34.3833 44.6666 29.7666 44.6666 24.6666C44.6666 16.4 37.9332 9.66663 29.6666 9.66663ZM34.8332 23.7V23C34.8332 22.75 34.8332 22.6 34.7332 22.3666L36.2166 21.2666C36.3332 21.2 36.3332 20.9666 36.3332 20.8L34.9666 18.5333C34.8832 18.3833 34.6666 18.3 34.4999 18.3833L32.8499 19.0833C32.5499 18.7666 32.1666 18.5333 31.7666 18.3833L31.4999 16.6666C31.4499 16.4333 31.3332 16.3333 31.1332 16.3333H28.4832C28.3166 16.3333 28.1666 16.4333 28.1666 16.6666L27.9332 18.3833C27.5499 18.5333 27.1666 18.7666 26.8332 19.0833L25.1166 18.3833C24.9666 18.3 24.8332 18.3833 24.7332 18.5333L23.3999 20.8C23.3166 21.0333 23.3166 21.2 23.4832 21.2666L24.8832 22.3666C24.8832 22.6 24.8332 22.8333 24.8332 23C24.8332 23.2333 24.8832 23.4666 24.8832 23.7L23.4832 24.7833C23.3166 24.8666 23.3166 25.0166 23.3999 25.1833L24.7332 27.5166C24.8332 27.6833 24.9666 27.6833 25.1166 27.6833L26.7666 26.9666C27.1666 27.2833 27.4666 27.45 27.9332 27.6L28.1666 29.4C28.1666 29.55 28.3166 29.6666 28.4832 29.6666H31.1332C31.3332 29.6666 31.4499 29.55 31.4999 29.4L31.7666 27.6C32.1666 27.45 32.5499 27.2833 32.8499 26.9833L34.4999 27.6833C34.6666 27.6833 34.8832 27.6833 34.9666 27.5166L36.3332 25.1833C36.3332 25.0166 36.3332 24.8666 36.2166 24.7833L34.8332 23.7ZM29.8332 25.4166C28.5332 25.4166 27.4666 24.3166 27.4666 23C27.4666 21.6833 28.4832 20.65 29.8332 20.65C31.1332 20.65 32.2332 21.6666 32.2332 23C32.2332 24.3333 31.1332 25.4166 29.8332 25.4166Z" fill="#6E71CC"/>
</svg>
