<svg width="56" height="56" viewBox="0 0 56 56" fill="none" xmlns="http://www.w3.org/2000/svg">
<rect width="56" height="56" rx="8" fill="#F7F7FF"/>
<mask id="mask0_10594_180338" style="mask-type:alpha" maskUnits="userSpaceOnUse" x="8" y="8" width="40" height="40">
<rect x="8" y="8" width="40" height="40" fill="#D9D9D9"/>
</mask>
<g mask="url(#mask0_10594_180338)">
<path d="M17.9993 44.6667C17.0827 44.6667 16.2982 44.3406 15.646 43.6884C14.9927 43.035 14.666 42.25 14.666 41.3334V14.6667C14.666 13.75 14.9927 12.965 15.646 12.3117C16.2982 11.6595 17.0827 11.3334 17.9993 11.3334H31.3327L41.3327 21.3334V28H37.9993V23H29.666V14.6667H17.9993V41.3334H27.9993V44.6667H17.9993ZM38.4993 32.2084L40.291 34L33.8327 40.4167V42.1667H35.5827L42.041 35.75L43.791 37.5L36.6243 44.6667H31.3327V39.375L38.4993 32.2084ZM43.791 37.5L38.4993 32.2084L40.916 29.7917C41.2216 29.4862 41.6105 29.3334 42.0827 29.3334C42.5549 29.3334 42.9438 29.4862 43.2493 29.7917L46.2077 32.75C46.5132 33.0556 46.666 33.4445 46.666 33.9167C46.666 34.3889 46.5132 34.7778 46.2077 35.0834L43.791 37.5Z" fill="#6E71CC"/>
</g>
</svg>
