<svg width="56" height="56" viewBox="0 0 56 56" fill="none" xmlns="http://www.w3.org/2000/svg">
<rect width="56" height="56" rx="8" fill="#F7F7FF"/>
<path d="M39.7526 24.7122L39.4192 22.9622C39.1692 22.8788 38.9403 22.7744 38.7326 22.6488C38.5237 22.5244 38.3359 22.3788 38.1692 22.2122L36.4192 22.7955L35.2526 20.7955L36.6692 19.5455C36.6137 19.4066 36.5859 19.2955 36.5859 19.2122V18.5455C36.5859 18.4622 36.6137 18.3511 36.6692 18.2122L35.2526 16.9622L36.4192 14.9622L38.1692 15.5455C38.3359 15.3789 38.5237 15.2328 38.7326 15.1072C38.9403 14.9828 39.1692 14.8789 39.4192 14.7955L39.7526 13.0455H42.0859L42.4192 14.7955C42.6692 14.8789 42.8987 14.9828 43.1076 15.1072C43.3153 15.2328 43.5026 15.3789 43.6692 15.5455L45.4192 14.9622L46.5859 16.9622L45.1692 18.2122C45.2248 18.3511 45.2526 18.4622 45.2526 18.5455V19.2122C45.2526 19.2955 45.2248 19.4066 45.1692 19.5455L46.5859 20.7955L45.4192 22.7955L43.6692 22.2122C43.5026 22.3788 43.3153 22.5244 43.1076 22.6488C42.8987 22.7744 42.6692 22.8788 42.4192 22.9622L42.0859 24.7122H39.7526ZM40.9192 20.9622C41.5026 20.9622 41.9959 20.7605 42.3992 20.3572C42.8014 19.955 43.0026 19.4622 43.0026 18.8788C43.0026 18.2955 42.8014 17.8022 42.3992 17.3989C41.9959 16.9966 41.5026 16.7955 40.9192 16.7955C40.3359 16.7955 39.8431 16.9966 39.4409 17.3989C39.0376 17.8022 38.8359 18.2955 38.8359 18.8788C38.8359 19.4622 39.0376 19.955 39.4409 20.3572C39.8431 20.7605 40.3359 20.9622 40.9192 20.9622ZM35.9192 33.0455L35.6692 31.7955C35.5026 31.74 35.3431 31.6772 35.1909 31.6072C35.0376 31.5383 34.8914 31.4344 34.7526 31.2955L33.5859 31.7122L32.7526 30.2122L33.6692 29.3788V28.3788L32.7526 27.5455L33.5859 26.0455L34.7526 26.4622C34.8637 26.3511 35.0026 26.2538 35.1692 26.1705C35.3359 26.0872 35.5026 26.0177 35.6692 25.9622L35.9192 24.7122H37.5859L37.8359 25.9622C38.0026 26.0177 38.1692 26.0872 38.3359 26.1705C38.5026 26.2538 38.6414 26.3511 38.7526 26.4622L39.9192 26.0455L40.7526 27.5455L39.8359 28.3788V29.3788L40.7526 30.2122L39.9192 31.7122L38.7526 31.2955C38.6137 31.4344 38.4681 31.5383 38.3159 31.6072C38.1626 31.6772 38.0026 31.74 37.8359 31.7955L37.5859 33.0455H35.9192ZM36.7526 30.1288C37.0859 30.1288 37.3776 30.0038 37.6276 29.7538C37.8776 29.5038 38.0026 29.2122 38.0026 28.8788C38.0026 28.5455 37.8776 28.2538 37.6276 28.0038C37.3776 27.7538 37.0859 27.6288 36.7526 27.6288C36.4192 27.6288 36.1276 27.7538 35.8776 28.0038C35.6276 28.2538 35.5026 28.5455 35.5026 28.8788C35.5026 29.2122 35.6276 29.5038 35.8776 29.7538C36.1276 30.0038 36.4192 30.1288 36.7526 30.1288ZM23.4192 29.7122C21.5859 29.7122 20.0164 29.0594 18.7109 27.7538C17.4054 26.4483 16.7526 24.8788 16.7526 23.0455H16.998C17.6602 22.8172 16.9048 22.9477 16.7526 22.7955C16.5993 22.6422 16.998 22.4622 16.998 22.2122C16.998 21.9622 17.4052 21.8103 17.5585 21.657C17.7107 21.5048 17.248 21.3788 17.498 21.3788C17.498 20.1288 18.3869 20.5012 18.998 19.5012C19.6091 18.5012 19.3159 19.0845 20.3159 18.5012L20.0859 17.2122C20.0859 17.4622 20.1626 17.6633 20.3159 17.8155C20.4681 17.9689 20.6692 18.0455 20.9192 18.0455C21.1692 18.0455 21.3709 17.9689 21.5242 17.8155C21.6764 17.6633 21.7526 17.4622 21.7526 17.2122L22.5442 17.8155C22.7942 17.7322 22.9917 17.3308 23.2695 17.2886C23.5472 17.2475 23.6924 17.2122 23.998 17.2122C24.3036 17.2122 23.9056 17.3862 24.1834 17.4273C24.4611 17.4695 24.248 17.4326 24.498 17.5159L25.0859 17.2122C25.0859 17.4622 25.1626 17.6633 25.3159 17.8155C25.4681 17.9689 25.6692 18.0455 25.9192 18.0455C26.1692 18.0455 26.3709 17.9689 26.5242 17.8155C26.6764 17.6633 26.7526 17.4622 26.7526 17.2122L26.5242 19.2122C27.5242 19.7955 26.5271 18.2122 27.1382 19.2122C27.7493 20.2122 28.498 20.2512 28.498 21.5012L28.775 22.2122C29.025 22.2122 25.1654 22.262 28.775 21.657C26.1654 21.551 27.7741 22.5455 27.7741 22.7955C27.7741 23.0455 26.1762 22.9795 28.998 23.0012C28.8447 23.1534 29.4192 23.0455 29.1692 23.0455L29.998 22.7955C29.998 24.6288 29.4331 26.4483 28.1276 27.7538C26.822 29.0594 25.2526 29.7122 23.4192 29.7122ZM23.4192 26.3788C24.3359 26.3788 25.1209 26.0522 25.7742 25.3988C26.4264 24.7466 27.998 19.4179 27.998 18.5012L23.4192 17.2122L19.498 19.2122C19.498 20.1288 19.998 26.5012 21.0659 25.3988C21.7181 26.0522 22.5026 26.3788 23.4192 26.3788ZM10.0859 43.0455V38.3788C10.0859 37.4622 10.322 36.6011 10.7943 35.7955C11.2665 34.99 11.9193 34.3788 12.7526 33.9622C14.1693 33.24 15.7665 32.6288 17.5443 32.1288C19.322 31.6288 21.2803 31.3788 23.4192 31.3788C25.5581 31.3788 27.5164 31.6288 29.2942 32.1288C31.072 32.6288 32.6692 33.24 34.0859 33.9622C34.9192 34.3788 35.572 34.99 36.0442 35.7955C36.5164 36.6011 36.7526 37.4622 36.7526 38.3788V43.0455H10.0859ZM13.4193 39.7122H33.4192V38.3788C33.4192 38.0733 33.3431 37.7955 33.1909 37.5455C33.0376 37.2955 32.8359 37.1011 32.5859 36.9622C31.5859 36.4622 30.3014 35.9622 28.7326 35.4622C27.1626 34.9622 25.3914 34.7122 23.4192 34.7122C21.447 34.7122 19.6764 34.9622 18.1076 35.4622C16.5376 35.9622 15.2526 36.4622 14.2526 36.9622C14.0026 37.1011 13.8015 37.2955 13.6493 37.5455C13.4959 37.7955 13.4193 38.0733 13.4193 38.3788V39.7122Z" fill="#6E71CC"/>
<path d="M23.3313 29.3346C21.498 29.3346 19.9286 28.6819 18.623 27.3763C17.3175 26.0707 16.6647 24.5013 16.6647 22.668C16.6647 20.8346 17.3175 19.2652 18.623 17.9597C19.9286 16.6541 21.498 16.0013 23.3313 16.0013C25.1647 16.0013 26.7341 16.6541 28.0397 17.9597C29.3452 19.2652 29.998 20.8346 29.998 22.668C29.998 24.5013 29.3452 26.0707 28.0397 27.3763C26.7341 28.6819 25.1647 29.3346 23.3313 29.3346ZM9.99805 42.668V38.0013C9.99805 37.0569 10.2414 36.1885 10.728 35.3963C11.2136 34.6052 11.8592 34.0013 12.6647 33.5846C14.3869 32.7235 16.1369 32.0774 17.9147 31.6463C19.6924 31.2163 21.498 31.0013 23.3313 31.0013C25.1647 31.0013 26.9702 31.2163 28.748 31.6463C30.5258 32.0774 32.2759 32.7235 33.9981 33.5846C34.8036 34.0013 35.4492 34.6052 35.9348 35.3963C36.4214 36.1885 36.6648 37.0569 36.6648 38.0013V42.668H9.99805ZM13.3314 39.3346H33.3313V38.0013C33.3313 37.6957 33.2552 37.418 33.103 37.168C32.9497 36.918 32.748 36.7235 32.498 36.5846C30.998 35.8346 29.4841 35.2719 27.9563 34.8963C26.4286 34.5219 24.8869 34.3346 23.3313 34.3346C21.7758 34.3346 20.2341 34.5219 18.7063 34.8963C17.1786 35.2719 15.6647 35.8346 14.1647 36.5846C13.9147 36.7235 13.7136 36.918 13.5614 37.168C13.408 37.418 13.3314 37.6957 13.3314 38.0013V39.3346ZM23.3313 26.0013C24.248 26.0013 25.033 25.6746 25.6863 25.0213C26.3386 24.3691 26.6647 23.5846 26.6647 22.668C26.6647 21.7513 26.3386 20.9669 25.6863 20.3146C25.033 19.6613 24.248 19.3346 23.3313 19.3346C22.4147 19.3346 21.6302 19.6613 20.978 20.3146C20.3247 20.9669 19.998 21.7513 19.998 22.668C19.998 23.5846 20.3247 24.3691 20.978 25.0213C21.6302 25.6746 22.4147 26.0013 23.3313 26.0013Z" fill="#6E71CC"/>
</svg>
