<svg width="56" height="56" viewBox="0 0 56 56" fill="none" xmlns="http://www.w3.org/2000/svg">
<rect width="56" height="56" rx="8" fill="#F7F7FF"/>
<mask id="mask0_10594_180329" style="mask-type:alpha" maskUnits="userSpaceOnUse" x="8" y="8" width="40" height="40">
<rect x="8" y="8" width="40" height="40" fill="#D9D9D9"/>
</mask>
<g mask="url(#mask0_10594_180329)">
<path d="M41.2494 34.5846L38.666 32.0013C39.8882 30.8624 40.8466 29.5152 41.541 27.9596C42.2355 26.4041 42.5827 24.7513 42.5827 23.0013C42.5827 21.2513 42.2355 19.6124 41.541 18.0846C40.8466 16.5569 39.8882 15.2235 38.666 14.0846L41.2494 11.418C42.8049 12.8902 44.041 14.6263 44.9577 16.6263C45.8743 18.6263 46.3327 20.7513 46.3327 23.0013C46.3327 25.2513 45.8743 27.3763 44.9577 29.3763C44.041 31.3763 42.8049 33.1124 41.2494 34.5846ZM35.916 29.2513L33.2493 26.5846C33.7493 26.1124 34.1521 25.578 34.4577 24.9813C34.7632 24.3835 34.916 23.7235 34.916 23.0013C34.916 22.2791 34.7632 21.6191 34.4577 21.0213C34.1521 20.4246 33.7493 19.8902 33.2493 19.418L35.916 16.7513C36.8049 17.5569 37.4993 18.4941 37.9993 19.563C38.4993 20.633 38.7494 21.7791 38.7494 23.0013C38.7494 24.2235 38.4993 25.3691 37.9993 26.438C37.4993 27.508 36.8049 28.4457 35.916 29.2513ZM22.9993 29.668C21.166 29.668 19.5966 29.0152 18.291 27.7096C16.9855 26.4041 16.3327 24.8346 16.3327 23.0013C16.3327 21.168 16.9855 19.5985 18.291 18.293C19.5966 16.9874 21.166 16.3346 22.9993 16.3346C24.8327 16.3346 26.4021 16.9874 27.7077 18.293C29.0132 19.5985 29.666 21.168 29.666 23.0013C29.666 24.8346 29.0132 26.4041 27.7077 27.7096C26.4021 29.0152 24.8327 29.668 22.9993 29.668ZM9.66602 43.0013V38.3346C9.66602 37.418 9.90213 36.5569 10.3743 35.7513C10.8466 34.9457 11.4993 34.3346 12.3327 33.918C13.7493 33.1957 15.3466 32.5846 17.1243 32.0846C18.9021 31.5846 20.8605 31.3346 22.9993 31.3346C25.1382 31.3346 27.0966 31.5846 28.8743 32.0846C30.6521 32.5846 32.2493 33.1957 33.666 33.918C34.4993 34.3346 35.1521 34.9457 35.6244 35.7513C36.0966 36.5569 36.3327 37.418 36.3327 38.3346V43.0013H9.66602ZM12.9993 39.668H32.9993V38.3346C32.9993 38.0291 32.9232 37.7513 32.771 37.5013C32.6177 37.2513 32.416 37.0569 32.166 36.918C31.166 36.418 29.8816 35.918 28.3127 35.418C26.7427 34.918 24.9716 34.668 22.9993 34.668C21.0271 34.668 19.256 34.918 17.686 35.418C16.1171 35.918 14.8327 36.418 13.8327 36.918C13.5827 37.0569 13.3816 37.2513 13.2293 37.5013C13.076 37.7513 12.9993 38.0291 12.9993 38.3346V39.668ZM22.9993 26.3346C23.916 26.3346 24.701 26.008 25.3544 25.3546C26.0066 24.7024 26.3327 23.918 26.3327 23.0013C26.3327 22.0846 26.0066 21.2996 25.3544 20.6463C24.701 19.9941 23.916 19.668 22.9993 19.668C22.0827 19.668 21.2982 19.9941 20.646 20.6463C19.9927 21.2996 19.666 22.0846 19.666 23.0013C19.666 23.918 19.9927 24.7024 20.646 25.3546C21.2982 26.008 22.0827 26.3346 22.9993 26.3346Z" fill="#6E71CC"/>
</g>
</svg>
